<?xml version="1.0" encoding="utf-8"?>
<!-- Generator: Adobe Illustrator 18.1.1, SVG Export Plug-In . SVG Version: 6.00 Build 0)  -->
<svg version="1.1" id="Layer_1" xmlns="http://www.w3.org/2000/svg" xmlns:xlink="http://www.w3.org/1999/xlink" x="0px" y="0px"
	 viewBox="0 0 256 256" style="enable-background:new 0 0 256 256;" xml:space="preserve">
<style type="text/css">
	.st0{fill:#BC9D6D;}
</style>
<g id="Your_Icon_2_">
	<path class="st0" d="M48.6,241.4c2.8,0.3,5.2-1.7,5.8-4.3c-0.3,3,1.9,5.6,4.9,5.8c3,0.3,5.6-1.9,5.9-4.9c0.3-3.2,1-11.2,1.4-14.2
		c0.1,0,0.1,0,0.2,0c19.2,1.6,41-12.7,45.2-43.2c1.9-13.2-1.5-26.3-9.5-36.9c-5.4-7.2-12.6-12.6-20.7-16c0.6-1.2,1-2.5,1.2-3.8
		c0.5-3.5-0.4-6.9-2.5-9.7c-2.1-2.8-5.2-4.6-8.7-5.1c-6.5-0.9-12.7,3.1-14.5,9.4c-0.2,0.6-0.3,1.2-0.4,1.8c-0.2,1.4-0.1,2.7,0.1,4
		c-1.4,0.2-2.8,0.4-4.2,0.7l-3.4-9.4c3.5-2.4,6.1-6,7.3-10.2c0.6-2.1,0.8-4.2,0.7-6.4l-1.6-23.8c-0.1-2.2-0.7-4.4-1.6-6.3l12.8-10.5
		c0.3,0.2,0.6,0.3,0.9,0.5c4.5,2.2,9.6,2.6,14.4,0.9L105,52c5.9-2,10.4-6.7,12.1-12.7c0,0,0-0.1,0-0.1l11.2-0.2
		c1.8,4.6,5.4,8.4,10.3,10.4l22.1,9.1c4.6,1.9,9.6,1.9,14.2,0.1l5,6.3c-1,1.6-1.9,3.3-2.4,5.2c-0.7,2.5-0.9,5.1-0.5,7.7l3.2,23.7
		c1,7.1,5.8,12.7,12,15.1l-0.3,7.8c-16.6,0.5-32.6,9.3-41.5,24.7c-2.8,4.9-4.9,9.7-6.2,14.4c-5.9,20.8,2,38.8,15.1,47.5
		c0.1,0,0.1,0.1,0.2,0.1c-1.5,2.5-5.9,9.4-7.6,12.1c-1.6,2.5-0.8,5.9,1.7,7.4c2.5,1.6,5.9,0.8,7.4-1.7l0,0c-0.2,0.3-0.4,0.7-0.5,1.1
		c-0.6,2.2,0.2,4.7,2.3,6c2.5,1.6,5.9,0.8,7.4-1.7c0.7-1,6-9.5,7.8-12.5c0.1,0,0.2,0,0.2,0.1c17.2,8.7,42.7,3.6,58.2-23
		c11.6-20,7.6-44.8-8.1-60.4c1-0.9,1.9-1.9,2.6-3.1c0.5-0.9,1-2,1.3-3c1.7-5.8-0.8-11.9-6-15c-6.3-3.6-14.3-1.5-18,4.8
		c-0.5,0.9-1,2-1.3,3c-0.1,0.3-0.1,0.5-0.2,0.8c-1.4-0.4-2.7-0.7-4.1-1l0.3-8c6.7-1.5,12.1-6.5,14-13.2c0.7-2.5,0.9-5.1,0.5-7.7
		l-3.2-23.7c-1.4-10.3-10.9-17.5-21.3-16.1c-1.7,0.2-3.4,0.7-4.9,1.4l-4.8-6.1c0.8-1.1,1.4-2.3,2-3.6c4-9.8-0.7-20.7-10.3-24.6
		L153,14.5c-4.7-1.9-9.8-1.9-14.4,0c-4.7,1.9-8.3,5.6-10.2,10.2c-0.3,0.7-0.5,1.3-0.7,2c-0.1,0.5-0.2,0.9-0.3,1.4l-10.5,0.2
		c0-0.1-0.1-0.2-0.1-0.3c-1.6-4.8-5-8.6-9.5-10.8c-4.5-2.2-9.6-2.6-14.4-0.9L70.2,24c-5.9,2-10.4,6.7-12.1,12.7
		c-1.1,3.7-1,7.6,0.3,11.2c0.3,0.9,0.7,1.7,1.1,2.6L47.3,60.6c-3.4-2.2-7.4-3.3-11.5-3c-7.9,0.5-14.7,6-16.9,13.7
		c-0.6,2.1-0.8,4.2-0.7,6.4l1.6,23.8c0.7,10.2,9.3,17.9,19.4,17.6l3.4,9.2c-13.2,5.9-23.6,17.3-27.7,31.8c-0.6,2.2-1.1,4.4-1.4,6.7
		c-4.3,30.4,12.6,50.2,31.5,54c0.1,0,0.2,0,0.2,0.1c-0.4,3.5-1.3,13.5-1.4,14.7C43.5,238.5,45.6,241.1,48.6,241.4z M227.3,193.6
		c-9.1,15.7-27.2,27.3-44,18.8c-5.2-2.6-11.2-1.2-13.9,3.3c2.5-4.6,0.8-10.5-4-13.7c-15.7-10.4-14.7-31.7-5.5-47.5
		c10.8-18.6,34.7-24.9,53.3-14.2C231.7,151.1,238,175.1,227.3,193.6z M217.7,127.8c0.7-1.1,2.1-1.5,3.2-0.9c0.9,0.5,1.4,1.6,1.1,2.7
		c-0.1,0.2-0.1,0.4-0.2,0.5c-0.6,1.1-2.1,1.5-3.2,0.9c0,0,0,0,0,0c0,0,0,0,0,0C217.4,130.4,217,128.9,217.7,127.8z M203.7,74.1
		l3.2,23.7c0.2,1.1,0.1,2.2-0.2,3.3c-0.5,1.9-1.7,3.4-3.2,4.5l0.3-7.7c0.1-3-2.2-5.5-5.2-5.6c-2.5-0.1-4.7,1.6-5.4,3.9
		c-0.1,0.4-0.2,0.9-0.2,1.3l-0.2,6.4c-0.9-1.1-1.6-2.5-1.8-4l-3.2-23.7c-0.1-0.6-0.1-1.1-0.1-1.7l3.7,4.7c1.8,2.3,5.2,2.7,7.6,0.9
		c2.3-1.8,2.7-5.2,0.9-7.6l-4.3-5.5C199.5,67.1,203.1,70,203.7,74.1z M142.7,24.5c2-0.8,4.2-0.8,6.2,0l22.1,9.1
		c3.5,1.4,5.4,5,4.9,8.7l-2.6-3.3c-1.8-2.3-5.2-2.7-7.6-0.9c-0.9,0.7-1.5,1.7-1.8,2.8c-0.5,1.6-0.2,3.4,1,4.8l2.7,3.4
		c-0.9,0-1.8-0.2-2.6-0.6l-22.1-9.1c-0.5-0.2-0.9-0.4-1.3-0.7l4.1-0.1c3-0.1,5.3-2.5,5.3-5.5c-0.1-3-2.5-5.3-5.5-5.3l-6.4,0.1
		C139.7,26.4,141,25.2,142.7,24.5z M73.7,34.2l22.6-7.7c2-0.7,4.2-0.6,6.2,0.4c0.9,0.4,1.7,1,2.3,1.8l-4.3,0.1
		c-2.4,0-4.5,1.7-5.1,3.9c-0.1,0.5-0.2,1-0.2,1.6c0.1,3,2.5,5.3,5.5,5.3l4.2-0.1c-0.9,1-2.1,1.9-3.4,2.3l-22.6,7.7
		c-0.5,0.2-1.1,0.3-1.6,0.4l3.9-3.2c2.3-1.9,2.6-5.3,0.7-7.6c-1.9-2.3-5.3-2.6-7.6-0.7l-6,4.9C67.8,39.4,70.1,35.4,73.7,34.2z
		 M30.5,100.7L29,76.9c-0.3-4.4,3.2-8.3,7.5-8.6c0.5,0,0.9,0,1.3,0l-3.6,3c-0.9,0.7-1.5,1.7-1.8,2.7c-0.5,1.6-0.1,3.5,1,4.9
		c1.9,2.3,5.3,2.6,7.6,0.7l4-3.3l1.5,23.3c0.1,0.9,0,1.9-0.3,2.7c-0.2,0.8-0.6,1.5-1,2.1l-1.9-5.2c-1-2.8-4.1-4.2-6.9-3.2
		c-1.7,0.6-2.9,2-3.3,3.6c-0.3,1.1-0.3,2.2,0.1,3.3l1.6,4.3C32.5,106.1,30.7,103.6,30.5,100.7z M68.1,123.5
		c-0.2-0.3-0.6-0.9-0.4-1.7c0.2-1.3,1.4-2.2,2.7-2c0.8,0.1,1.3,0.6,1.6,0.9c0.2,0.3,0.6,0.9,0.4,1.7c0,0.1,0,0.2-0.1,0.3
		c-0.3,1.1-1.4,1.8-2.6,1.7l0,0c0,0,0,0,0,0C68.8,124.3,68.3,123.8,68.1,123.5z M24.1,168.2c3-21.3,22.8-36.2,44-33.2
		c10.3,1.5,19.4,6.8,25.7,15.2c6.3,8.3,8.9,18.6,7.5,28.9c-3.4,23.8-19.5,35.1-33.7,33.9c-5.7-0.5-10.8,3.1-11.6,8.2
		c0.6-5.1-3.3-10-8.9-11.2C28.6,206.5,21.5,186.3,24.1,168.2z"/>
</g>
<g>
</g>
<g>
</g>
<g>
</g>
<g>
</g>
<g>
</g>
<g>
</g>
</svg>
