<?xml version="1.0" encoding="utf-8"?>
<!-- Generator: Adobe Illustrator 18.1.1, SVG Export Plug-In . SVG Version: 6.00 Build 0)  -->
<svg version="1.1" id="Layer_1" xmlns="http://www.w3.org/2000/svg" xmlns:xlink="http://www.w3.org/1999/xlink" x="0px" y="0px"
	 viewBox="0 0 256 256" style="enable-background:new 0 0 256 256;" xml:space="preserve">
<style type="text/css">
	.st0{fill:#BC9D6D;}
</style>
<g>
	<path class="st0" d="M189.9,138.7C189.9,138.7,189.9,138.7,189.9,138.7c11.5-3.5,23.5-8.1,34.9-14.4c18.4-10.7,27.8,0.4,21,17.2
		c-5.8,15.9-36.8,45.5-63.8,52.3c-10.3-7.3-30.6-12.3-54-12.4c-23.4,0.1-43.7,5.1-54,12.4c-27-6.8-57.9-36.4-63.8-52.3
		c-6.8-16.8,2.6-27.9,21-17.2c11.5,6.3,23.4,11,34.9,14.4c24.7,7.4,47.4,9.3,59.2,9.3l6.5,0C143.7,147.9,165.8,145.9,189.9,138.7z"
		/>
	<g id="XMLID_1_">
		<path class="st0" d="M156.5,63.9c9.6,4.8,25.3,50.1,31.3,68.6c-23.2,6.7-44.5,8.6-56,8.7l-6.5,0c-11.6,0-33.3-1.7-57.2-8.7
			c6.1-18.5,21.7-63.8,31.4-68.7c11-5.5,20.5,3.6,28.1,4.5h-1.5c0.6,0.1,1.2,0.1,1.8,0c0.6,0.1,1.3,0,1.9,0h-1.5
			C136,67.5,145.5,58.4,156.5,63.9z M152.7,99.1c0-2-1.6-3.6-3.6-3.6c-1.8,0-3.4,1.4-3.6,3.1l-11.2-1.6l-4.9-10
			c1.3-0.5,2.3-1.8,2.3-3.4c0-2-1.6-3.6-3.6-3.6c-2,0-3.6,1.6-3.6,3.6c0,1.5,1,2.8,2.3,3.4l-4.9,10l-11.2,1.6
			c-0.2-1.8-1.8-3.2-3.6-3.2c-2,0-3.6,1.6-3.6,3.6c0,2,1.6,3.6,3.6,3.6c1.2,0,2.3-0.6,3-1.6l8,7.8l-2,11.7c-0.4-0.2-0.9-0.3-1.4-0.3
			c-2,0-3.6,1.6-3.6,3.6c0,2,1.6,3.6,3.6,3.6c2,0,3.6-1.6,3.6-3.6c0-0.8-0.2-1.5-0.6-2l10.6-5.6l10.6,5.6c-0.4,0.6-0.6,1.3-0.6,2.1
			c0,2,1.6,3.6,3.6,3.6c2,0,3.6-1.6,3.6-3.6c0-2-1.6-3.6-3.6-3.6c-0.5,0-1,0.1-1.4,0.3l-2-11.7l8-7.8c0.7,0.9,1.7,1.5,3,1.5
			C151.1,102.7,152.7,101.1,152.7,99.1z"/>
	</g>
</g>
<g>
</g>
<g>
</g>
<g>
</g>
<g>
</g>
<g>
</g>
<g>
</g>
</svg>
