<?xml version="1.0" encoding="utf-8"?>
<!-- Generator: Adobe Illustrator 18.1.1, SVG Export Plug-In . SVG Version: 6.00 Build 0)  -->
<svg version="1.1" id="Layer_1" xmlns="http://www.w3.org/2000/svg" xmlns:xlink="http://www.w3.org/1999/xlink" x="0px" y="0px"
	 viewBox="0 0 256 256" style="enable-background:new 0 0 256 256;" xml:space="preserve">
<style type="text/css">
	.st0{fill:#87714F;}
</style>
<g>
	<g>
		<g id="Your_Icon_8_">
			<path class="st0" d="M224.5,174.6c-1.7,0-3.2,0.6-4.6,1.4l-28.5-48l28.5-48c1.4,0.8,2.9,1.4,4.6,1.4c5,0,9.1-4.1,9.1-9.1
				c0-5-4.1-9.1-9.1-9.1c-5,0-9.1,4.1-9.1,9.1c0,0,0,0.1,0,0.1l-55.7,0.7l-27.3-48.7c2.7-1.6,4.7-4.4,4.7-7.8c0-5-4.1-9.1-9.1-9.1
				c-5,0-9.1,4.1-9.1,9.1c0,3.4,2,6.2,4.7,7.8L96.3,73.1l-55.7-0.7c0,0,0-0.1,0-0.1c0-5-4.1-9.1-9.1-9.1c-5,0-9.1,4.1-9.1,9.1
				c0,5,4.1,9.1,9.1,9.1c1.7,0,3.2-0.6,4.6-1.4l28.5,48l-28.5,48c-1.4-0.8-2.9-1.4-4.6-1.4c-5,0-9.1,4.1-9.1,9.1
				c0,5,4.1,9.1,9.1,9.1c5,0,9.1-4.1,9.1-9.1c0,0,0-0.1,0-0.1l55.7-0.7l27.3,48.7c-2.7,1.6-4.7,4.4-4.7,7.8c0,5,4.1,9.1,9.1,9.1
				c5,0,9.1-4.1,9.1-9.1c0-3.4-1.9-6.2-4.7-7.8l27.3-48.7l55.7,0.7c0,0,0,0.1,0,0.1c0,5,4.1,9.1,9.1,9.1c5,0,9.1-4.1,9.1-9.1
				C233.5,178.7,229.5,174.6,224.5,174.6z"/>
		</g>
	</g>
</g>
<g>
</g>
<g>
</g>
<g>
</g>
<g>
</g>
<g>
</g>
<g>
</g>
</svg>
