<?xml version="1.0" encoding="utf-8"?>
<!-- Generator: Adobe Illustrator 18.1.1, SVG Export Plug-In . SVG Version: 6.00 Build 0)  -->
<svg version="1.1" id="Layer_1" xmlns="http://www.w3.org/2000/svg" xmlns:xlink="http://www.w3.org/1999/xlink" x="0px" y="0px"
	 viewBox="0 0 1555 256" style="enable-background:new 0 0 1555 256;" xml:space="preserve">
<style type="text/css">
	.st0{fill:#87714F;}
</style>
<g>
	<g>
		<g id="Your_Icon_17_">
			<path class="st0" d="M214.4,174.8c-1.7,0-3.2,0.6-4.5,1.4l-28.2-47.6l28.2-47.6c1.3,0.8,2.8,1.4,4.5,1.4c4.9,0,9-4,9-9
				c0-5-4-9-9-9c-5,0-9,4-9,9c0,0,0,0.1,0,0.1l-55.2,0.7l-27-48.2c2.7-1.5,4.6-4.4,4.6-7.7c0-5-4-9-9-9c-4.9,0-9,4-9,9
				c0,3.4,1.9,6.2,4.7,7.7l-27,48.2l-55.2-0.7c0,0,0-0.1,0-0.1c0-5-4-9-9-9c-5,0-9,4-9,9c0,5,4,9,9,9c1.7,0,3.2-0.6,4.5-1.4
				l28.2,47.6l-28.2,47.6c-1.4-0.8-2.8-1.4-4.5-1.4c-5,0-9,4-9,9c0,5,4,9,9,9c4.9,0,9-4,9-9c0,0,0-0.1,0-0.1l55.2-0.7l27,48.2
				c-2.7,1.5-4.7,4.4-4.7,7.7c0,5,4,9,9,9c5,0,9-4,9-9c0-3.4-1.9-6.2-4.6-7.7l27-48.2l55.2,0.7c0,0,0,0.1,0,0.1c0,5,4,9,9,9
				c4.9,0,9-4,9-9C223.4,178.8,219.4,174.8,214.4,174.8z"/>
		</g>
		<g id="Your_Icon_16_">
			<path class="st0" d="M1533.2,174.8c-1.7,0-3.2,0.6-4.5,1.4l-28.2-47.6l28.2-47.6c1.3,0.8,2.8,1.4,4.5,1.4c4.9,0,9-4,9-9
				c0-5-4-9-9-9c-5,0-9,4-9,9c0,0,0,0.1,0,0.1l-55.2,0.7l-27-48.2c2.7-1.5,4.6-4.4,4.6-7.7c0-5-4-9-9-9c-4.9,0-9,4-9,9
				c0,3.4,1.9,6.2,4.7,7.7l-27,48.2l-55.2-0.7c0,0,0-0.1,0-0.1c0-5-4-9-9-9c-5,0-9,4-9,9c0,5,4,9,9,9c1.7,0,3.2-0.6,4.5-1.4
				l28.2,47.6l-28.2,47.6c-1.4-0.8-2.8-1.4-4.5-1.4c-5,0-9,4-9,9c0,5,4,9,9,9c4.9,0,9-4,9-9c0,0,0-0.1,0-0.1l55.2-0.7l27,48.2
				c-2.7,1.5-4.7,4.4-4.7,7.7c0,5,4,9,9,9c5,0,9-4,9-9c0-3.4-1.9-6.2-4.6-7.7l27-48.2l55.2,0.7c0,0,0,0.1,0,0.1c0,5,4,9,9,9
				c4.9,0,9-4,9-9C1542.2,178.8,1538.2,174.8,1533.2,174.8z"/>
		</g>
	</g>
</g>
<g>
</g>
<g>
</g>
<g>
</g>
<g>
</g>
<g>
</g>
<g>
</g>
</svg>
